<?xml version="1.0" encoding="utf-8"?>
<!-- Generator: Adobe Illustrator 25.1.0, SVG Export Plug-In . SVG Version: 6.00 Build 0)  -->
<svg version="1.1" id="_x32_" xmlns="http://www.w3.org/2000/svg" xmlns:xlink="http://www.w3.org/1999/xlink" x="0px" y="0px"
	 viewBox="0 0 512 512" style="enable-background:new 0 0 512 512;" xml:space="preserve">
<style type="text/css">
	.st0{fill:#FFFFFF;}
</style>
<g>
	<path class="st0" d="M471.9,363.7L363.1,255l108.8-108.8c29.6-29.6,29.6-77.5,0-107.1l-1.1-1.1c-29.6-29.6-77.5-29.6-107.1,0
		L255,146.9L146.2,38C116.6,8.5,68.7,8.5,39.1,38l-1.1,1.1c-29.6,29.6-29.6,77.5,0,107.1l108.8,108.8L38.1,363.7
		c-29.6,29.6-29.6,77.5,0,107.1l1.1,1.1c29.6,29.6,77.5,29.6,107.1,0l108.7-108.7l108.8,108.8c29.6,29.6,77.5,29.6,107.1,0l1.1-1.1
		C501.4,441.2,501.4,393.3,471.9,363.7z"/>
</g>
</svg>
