<?xml version="1.0" encoding="utf-8"?>
<!-- Generator: Adobe Illustrator 25.1.0, SVG Export Plug-In . SVG Version: 6.00 Build 0)  -->
<svg version="1.1" id="Capa_1" xmlns="http://www.w3.org/2000/svg" xmlns:xlink="http://www.w3.org/1999/xlink" x="0px" y="0px"
	 viewBox="0 0 1000 1000" style="enable-background:new 0 0 1000 1000;" xml:space="preserve">
<style type="text/css">
	.st0{fill:#FFFFFF;}
</style>
<path class="st0" d="M657.1,500.3l-0.2-0.2l98-98c26.7-26.7,26.7-69.9,0-96.5l-1-1c-26.7-26.7-69.9-26.7-96.5,0l-97.9,98.2l0,0
	L413.3,548.8L342.5,478c-26.7-26.7-69.9-26.7-96.5,0l-1,1c-26.7,26.7-26.7,69.9,0,96.5l98,97.9l0,0l19.7,19.7l3.6,3.6
	c26.8,25.3,69,24.9,95.1-1.2L511,646l48.4-48.4l0.5,0.5L657.1,500.3z"/>
</svg>
