<?xml version="1.0" encoding="utf-8"?>
<!-- Generator: Adobe Illustrator 25.1.0, SVG Export Plug-In . SVG Version: 6.00 Build 0)  -->
<svg version="1.1" id="_x32_" xmlns="http://www.w3.org/2000/svg" xmlns:xlink="http://www.w3.org/1999/xlink" x="0px" y="0px"
	 viewBox="0 0 1000 1000" style="enable-background:new 0 0 1000 1000;" xml:space="preserve">
<style type="text/css">
	.st0{fill:#FFFFFF;}
</style>
<g>
	<polygon class="st0" points="684.4,487.4 684.4,396.5 623.7,396.5 623.7,487.4 533,487.4 533,548.3 624.2,548.3 624.2,639.2 
		684.9,639.2 684.9,548.3 775,548.3 775,487.4 	"/>
	<path class="st0" d="M376.4,528.6c83.5,0,151.3-68,151.3-151.8c0-83.9-67.8-151.8-151.3-151.8C292.7,225,225,293,225,376.8
		S292.8,528.6,376.4,528.6z"/>
	<path class="st0" d="M642,728.1c-32.1-98.9-149.8-152.7-265.6-152.7c-52.8,0-106.1,11.1-151.4,32.8V775h425.8
		C649.9,759.7,647,743.9,642,728.1z"/>
</g>
</svg>
