<?xml version="1.0" encoding="utf-8"?>
<!-- Generator: Adobe Illustrator 25.1.0, SVG Export Plug-In . SVG Version: 6.00 Build 0)  -->
<svg version="1.1" id="_x32_" xmlns="http://www.w3.org/2000/svg" xmlns:xlink="http://www.w3.org/1999/xlink" x="0px" y="0px"
	 viewBox="0 0 1000 1000" style="enable-background:new 0 0 1000 1000;" xml:space="preserve">
<style type="text/css">
	.st0{fill:#FFFFFF;}
</style>
<g>
	<path class="st0" d="M749.5,625.1l-125.1-125l125.1-125c34-34,34-89.1,0-123.2l-1.2-1.2c-34-34-89.1-34-123.2,0L500,375.6
		L374.9,250.4c-34-33.9-89.1-33.9-123.2,0l-1.2,1.2c-34,34-34,89.1,0,123.2l125.1,125.2l-125,125c-34,34-34,89.1,0,123.2l1.2,1.2
		c34,34,89.1,34,123.2,0l125.1-125.1l125.2,125.1c34,34,89.1,34,123.2,0l1.2-1.2C783.4,714.2,783.4,659.1,749.5,625.1z"/>
</g>
</svg>
