<?xml version="1.0" encoding="utf-8"?>
<!-- Generator: Adobe Illustrator 25.1.0, SVG Export Plug-In . SVG Version: 6.00 Build 0)  -->
<svg version="1.1" id="_x32_" xmlns="http://www.w3.org/2000/svg" xmlns:xlink="http://www.w3.org/1999/xlink" x="0px" y="0px"
	 viewBox="0 0 1000 1000" style="enable-background:new 0 0 1000 1000;" xml:space="preserve">
<style type="text/css">
	.st0{fill:#FFFFFF;}
</style>
<g>
	<path class="st0" d="M320,724.1c2.6,28.9,26.7,50.9,55.4,50.9h248.9c28.9,0,53-22,55.5-50.9l27.7-360.9h-415L320,724.1z
		 M578.7,463.2c0.4-6.4,5.8-11.1,12.2-10.8c6.4,0.3,11.1,5.8,10.8,12.2l-11,217.3c-0.4,6.4-5.8,11.1-12.2,10.8
		c-6.4-0.3-11.1-5.8-10.8-12.2L578.7,463.2z M488.4,464.1c0-6.4,5.2-11.4,11.5-11.4c6.4,0,11.5,5.2,11.5,11.4v217.1
		c0,6.4-5.2,11.4-11.5,11.4c-6.4,0-11.5-5.2-11.5-11.4V464.1L488.4,464.1z M409.1,452.5c6.4-0.4,11.8,4.4,12.2,10.8l10.9,217.1
		c0.4,6.4-4.4,11.8-10.8,12.2s-11.8-4.4-12.2-10.8l-10.9-217.1C398.1,458.4,402.8,453,409.1,452.5z"/>
	<path class="st0" d="M696.9,294.2c0,0-36.7-6.2-46.6-9.2c-8.9-2.6-86.9-14.5-86.9-14.5l-2.9-20.8c-2.1-14.2-13.8-24.8-27.7-24.8
		h-32.9h-33c-13.7,0-25.5,10.7-27.6,24.8l-2.9,20.8c0,0-77.9,11.9-86.9,14.5c-9.9,3.2-46.6,9.2-46.6,9.2
		c-11.1,3.1-18.8,13.6-18.8,25.7v23.6h215.8h216v-23.6C715.8,307.9,708.1,297.4,696.9,294.2z M521.9,266.6h-43.6c-3.8,0-7-3.1-7-7
		c0-3.8,3.1-7,7-7h43.6c3.8,0,7,3.1,7,7C528.9,263.6,525.6,266.6,521.9,266.6z"/>
</g>
</svg>
