<?xml version="1.0" encoding="utf-8"?>
<!-- Generator: Adobe Illustrator 25.1.0, SVG Export Plug-In . SVG Version: 6.00 Build 0)  -->
<svg version="1.1" id="Layer_1" xmlns="http://www.w3.org/2000/svg" xmlns:xlink="http://www.w3.org/1999/xlink" x="0px" y="0px"
	 viewBox="0 0 1000 1000" style="enable-background:new 0 0 1000 1000;" xml:space="preserve">
<style type="text/css">
	.st0{fill:#FFFFFF;}
</style>
<g>
	<g>
		<rect x="512.9" y="430.2" class="st0" width="142.8" height="45.6"/>
	</g>
	<g>
		<rect x="415.7" y="430.2" class="st0" width="47.8" height="45.6"/>
	</g>
	<g>
		<rect x="512.9" y="522" class="st0" width="142.8" height="45.6"/>
	</g>
	<g>
		<rect x="415.7" y="522" class="st0" width="47.8" height="45.6"/>
	</g>
	<g>
		<rect x="512.9" y="338.9" class="st0" width="142.8" height="45.6"/>
	</g>
	<g>
		<rect x="415.7" y="338.9" class="st0" width="47.8" height="45.6"/>
	</g>
	<path class="st0" d="M750.8,225H320c-12.6,0-23.6,11-23.6,22v388.8h-47.8c-12.6,0-23.6,11-23.6,22c0,66,53.3,117.1,119.2,117.1
		h311.5c65.9,0,119.2-51.1,119.2-113.8V247C774.4,236,763.4,225,750.8,225z M727.2,661.7c0,38.5-33,69.9-71.4,69.9
		s-71.4-31.4-71.4-69.9c0-12.6-11-22-23.6-22H344.2V272.9h383C727.2,272.9,727.2,661.7,727.2,661.7z"/>
</g>
</svg>
