<?xml version="1.0" encoding="utf-8"?>
<!-- Generator: Adobe Illustrator 25.1.0, SVG Export Plug-In . SVG Version: 6.00 Build 0)  -->
<svg version="1.1" id="_x32_" xmlns="http://www.w3.org/2000/svg" xmlns:xlink="http://www.w3.org/1999/xlink" x="0px" y="0px"
	 viewBox="0 0 1000 1000" style="enable-background:new 0 0 1000 1000;" xml:space="preserve">
<style type="text/css">
	.st0{fill:#FFFFFF;}
</style>
<g>
	<path class="st0" d="M761.7,696.9l-85.4-85.4l-64.7,64.7l85.4,85.5c8.6,8.6,20.1,13.4,32.3,13.4c12.2,0,23.6-4.7,32.3-13.4
		c8.8-8.6,13.4-20.2,13.4-32.3C775.1,717.1,770.4,705.5,761.7,696.9z"/>
	<path class="st0" d="M654.1,614.2l-44.4-44.4c0.2-0.2,0.2-0.2,0.2-0.2c28.6-37.3,44.3-83.4,44.1-130c0-57.2-22.2-111.1-62.9-151.6
		c-40.5-40.6-94.2-62.9-151.8-62.9c-57.2,0-110.9,22.3-151.4,62.9c-40.6,40.5-62.9,94.3-62.9,151.6c0,57.2,22.2,111.1,62.9,151.6
		c40.5,40.5,94.3,62.9,151.7,62.9h0.2c46.4,0,92.4-15.7,129.8-44.1c0.2-0.2,0.2-0.2,0.2-0.2l44.4,44.4L654.1,614.2z M541.6,541.5
		c-27.3,27.2-63.4,42.2-102.2,42.4c-38.6-0.2-74.8-15.1-102-42.4c-27.3-27.3-42.2-63.4-42.4-102.2c0-38.6,15-74.8,42.4-102.2
		c27.3-27.2,63.4-42.2,102.2-42.4l0,0c38.6,0.2,74.8,15,102,42.4c27.2,27.3,42.2,63.4,42.4,102.2
		C583.8,478.1,568.8,514.2,541.6,541.5z"/>
</g>
</svg>
