<?xml version="1.0" encoding="utf-8"?>
<!-- Generator: Adobe Illustrator 25.1.0, SVG Export Plug-In . SVG Version: 6.00 Build 0)  -->
<svg version="1.1" id="_x32_" xmlns="http://www.w3.org/2000/svg" xmlns:xlink="http://www.w3.org/1999/xlink" x="0px" y="0px"
	 viewBox="0 0 512 512" style="enable-background:new 0 0 512 512;" xml:space="preserve">
<style type="text/css">
	.st0{fill:#FFFFFF;}
</style>
<g>
	<path class="st0" d="M499.5,439.3L420,359.8L359.8,420l79.5,79.6c8,8,18.7,12.5,30.1,12.5c11.4,0,22-4.4,30.1-12.5
		c8.1-8,12.5-18.8,12.5-30.1S507.6,447.3,499.5,439.3z"/>
	<path class="st0" d="M399.4,362.3L358,320.9c0.1-0.1,0.1-0.2,0.1-0.2c26.6-34.7,41.2-77.7,41.1-121c0-53.3-20.7-103.4-58.5-141.2
		C303.1,20.8,253.1,0,199.4,0C146.2,0,96.1,20.8,58.5,58.5C20.7,96.2-0.1,146.3,0,199.6c0,53.3,20.7,103.4,58.5,141.1
		c37.7,37.7,87.8,58.5,141.2,58.5h0.2c43.2,0,86.1-14.6,120.8-41.1c0.1-0.1,0.2-0.1,0.2-0.1l41.4,41.4L399.4,362.3z M294.7,294.7
		c-25.4,25.3-59.1,39.3-95.1,39.4c-35.9-0.1-69.7-14.1-95-39.4c-25.4-25.4-39.3-59.1-39.4-95.1c0-35.9,14-69.7,39.4-95.1
		c25.4-25.3,59.1-39.3,95.1-39.4c0,0,0,0,0,0c35.9,0.1,69.7,14,95,39.4c25.3,25.4,39.3,59.1,39.4,95.1
		C334,235.6,320,269.3,294.7,294.7z"/>
</g>
</svg>
