<?xml version="1.0" encoding="utf-8"?>
<!-- Generator: Adobe Illustrator 26.3.1, SVG Export Plug-In . SVG Version: 6.00 Build 0)  -->
<svg version="1.1" id="_x32_" xmlns="http://www.w3.org/2000/svg" xmlns:xlink="http://www.w3.org/1999/xlink" x="0px" y="0px"
	 viewBox="0 0 1000 1000" style="enable-background:new 0 0 1000 1000;" xml:space="preserve">
<style type="text/css">
	.st0{fill:#FFFFFF;stroke:#FFFFFF;stroke-width:16;stroke-miterlimit:10;}
</style>
<g>
	<path class="st0" d="M767.6,327.7c-5.8-6.7-14.4-10.5-23.5-10.5h-395l-13.4-43.7l0,0c-6.3-19.5-23.1-34.2-44.1-38.4l-48.3-9.8
		c-8.2-1.6-16.2,3.2-18,10.9c-1.7,7.7,3.5,15.4,11.6,17l48.3,9.8c10.3,2.1,18.6,9.3,21.6,18.8l88.3,286.4c-2.1,0.8-3.9,1.8-5.8,2.9
		c-9.6,5.4-17.2,12.9-22.2,21.6c-5,8.4-7.5,17.8-7.7,27.5l0,0v1.5l0,0c0.2,7.6,1.9,15,5,21.6c4.8,10.7,12.6,19.7,22.7,26.1
		c10,6.4,22.1,10.1,35.1,10.1H706c8.4,0,15.1-6.4,15.1-14.3c0-8-6.8-14.3-15.1-14.3H422c-4.5,0-8.8-0.8-12.6-2.3
		c-5.8-2.3-10.9-6.3-14.3-11.2c-3.3-4.7-5.4-10.3-5.5-16.3c0.2-7.3,2.6-13.6,7-18.6c2.2-2.6,5-4.8,8.4-6.8c3.3-1.8,7.2-3.3,11.8-4.3
		l285.3-43.8c18.7-2.9,33.5-16.3,37.3-33.9l34.9-162.1l0,0c0.4-1.8,0.6-3.8,0.6-5.7C774.5,339.3,772.2,332.8,767.6,327.7z
		 M709.3,507.9c-1.3,5.8-6.3,10.3-12.5,11.3l-272.7,41.9l-66.4-215.3h386.4l0,0L709.3,507.9z"/>
	<path class="st0" d="M457,702.9c-6.7-4.3-14.7-6.8-23.5-6.8c-5.8,0-11.3,1.1-16.3,3.1c-7.5,3.1-13.9,8-18.3,14.3
		c-4.5,6.4-7.2,14-7.1,22c0,5.4,1.2,10.7,3.3,15.4c3.2,7.1,8.4,13.1,15.1,17.4s14.9,6.8,23.5,6.8c5.7,0,11.3-1.1,16.2-3.1
		c7.5-3.1,13.9-8,18.3-14.3c4.5-6.4,7.2-14,7.2-22.1c0-5.4-1.2-10.7-3.3-15.4C468.9,713,463.7,707.1,457,702.9z M449.2,741.8
		c-1.3,2.8-3.5,5.3-6.1,7s-5.9,2.6-9.4,2.6c-2.3,0-4.5-0.4-6.5-1.3c-3.1-1.2-5.5-3.2-7.4-5.8c-1.8-2.6-2.9-5.5-2.9-8.9
		c0-2.2,0.4-4.3,1.3-6.3c1.3-2.8,3.5-5.3,6.1-7s5.9-2.6,9.4-2.6c2.3,0,4.5,0.4,6.5,1.3c3.1,1.2,5.5,3.2,7.4,5.8
		c1.8,2.6,2.9,5.5,2.9,8.9C450.4,737.8,450,739.8,449.2,741.8z"/>
	<path class="st0" d="M686.1,702.9c-6.7-4.3-14.9-6.8-23.5-6.8c-5.7,0-11.3,1.1-16.3,3.1c-7.5,3.1-13.9,8-18.3,14.3
		c-4.5,6.4-7.2,14-7.2,22c0,5.4,1.2,10.7,3.3,15.4c3.2,7.1,8.4,13.1,15.1,17.4c6.7,4.3,14.9,6.8,23.5,6.8c5.7,0,11.3-1.1,16.3-3.1
		c7.5-3.1,13.9-8,18.3-14.3c4.5-6.4,7.2-14,7.2-22.1c0-5.4-1.2-10.7-3.3-15.4C698.1,713,692.8,707.1,686.1,702.9z M678.4,741.8
		c-1.3,2.8-3.5,5.3-6.1,7s-5.9,2.6-9.4,2.6c-2.3,0-4.5-0.4-6.5-1.3c-3.1-1.2-5.5-3.2-7.4-5.8c-1.8-2.6-2.9-5.5-2.9-8.9
		c0-2.2,0.4-4.3,1.3-6.3c1.3-2.8,3.5-5.3,6.1-7s5.9-2.6,9.4-2.6c2.3,0,4.5,0.4,6.5,1.3c3.1,1.2,5.5,3.2,7.4,5.8
		c1.8,2.6,2.9,5.5,2.9,8.9C679.7,737.8,679.3,739.8,678.4,741.8z"/>
	<path class="st0" d="M447.1,377.4c-2.5-8-11.4-12.6-19.9-10.3c-8.4,2.3-13.4,10.7-10.9,18.8L458,520.3c2.5,8,11.4,12.6,19.9,10.3
		c8.4-2.3,13.4-10.7,10.9-18.8L447.1,377.4z"/>
	<path class="st0" d="M517.2,377.3c-2.5-8-11.4-12.6-19.9-10.3c-8.4,2.3-13.4,10.7-10.9,18.8L525,510.4c2.5,8,11.4,12.6,19.9,10.3
		c8.4-2.3,13.4-10.7,10.9-18.8L517.2,377.3z"/>
	<path class="st0" d="M587.4,376.9c-2.5-8-11.4-12.6-19.9-10.3c-8.4,2.3-13.4,10.7-10.9,18.8l35.7,115.2c2.5,8,11.4,12.6,19.9,10.3
		c8.4-2.3,13.4-10.7,10.9-18.8L587.4,376.9z"/>
	<path class="st0" d="M657.5,376.7c-2.5-8-11.4-12.6-19.9-10.3c-8.4,2.3-13.4,10.7-10.9,18.8l32.6,105.1c2.5,8,11.4,12.6,19.9,10.3
		c8.4-2.3,13.4-10.7,10.9-18.8L657.5,376.7z"/>
</g>
</svg>
