<?xml version="1.0" encoding="utf-8"?>
<!-- Generator: Adobe Illustrator 25.1.0, SVG Export Plug-In . SVG Version: 6.00 Build 0)  -->
<svg version="1.1" id="Capa_1" xmlns="http://www.w3.org/2000/svg" xmlns:xlink="http://www.w3.org/1999/xlink" x="0px" y="0px"
	 viewBox="0 0 612 612" style="enable-background:new 0 0 612 612;" xml:space="preserve">
<style type="text/css">
	.st0{fill:none;}
	.st1{fill:#FFFFFF;}
</style>
<polygon class="st0" points="382.8,229.5 382.5,75.7 382.5,229.5 "/>
<polygon class="st0" points="229.6,75.7 229.6,229.5 229.6,229.5 "/>
<path d="M284.3,594.3h1.5c0.7,0,1.4,0,2-0.1l-5.6,0C282.9,594.2,283.6,594.3,284.3,594.3z"/>
<path class="st1" d="M480.4,306.2l-0.2-0.2l108.8-108.8c29.6-29.6,29.6-77.5,0-107.1l-1.1-1.1c-29.6-29.6-77.5-29.6-107.1,0
	L372.1,197.9l0,0L209.8,360.1l-78.6-78.6c-29.6-29.6-77.5-29.6-107.1,0l-1.1,1.1c-29.6,29.6-29.6,77.5,0,107.1l108.8,108.8l0,0
	l21.9,21.9l4,4c29.7,28.1,76.5,27.7,105.6-1.4l55-55l53.7-53.7l0.5,0.5L480.4,306.2z"/>
</svg>
