<?xml version="1.0" encoding="utf-8"?>
<!-- Generator: Adobe Illustrator 25.1.0, SVG Export Plug-In . SVG Version: 6.00 Build 0)  -->
<svg version="1.1" id="Capa_1" xmlns="http://www.w3.org/2000/svg" xmlns:xlink="http://www.w3.org/1999/xlink" x="0px" y="0px"
	 viewBox="0 0 1000 1000" style="enable-background:new 0 0 1000 1000;" xml:space="preserve">
<style type="text/css">
	.st0{fill:#FFFFFF;}
</style>
<g>
	<path class="st0" d="M707.1,431.2H568.8V293.1c0-37.6-30.5-68.1-68.1-68.1h-1.4c-37.6,0-68.1,30.5-68.1,68.1v138.2H293.1
		c-37.6,0-68.1,30.5-68.1,68.1v1.4c0,37.6,30.5,68.1,68.1,68.1h138.2v138.2c0,37.6,30.5,68.1,68.1,68.1h1.4
		c37.6,0,68.1-30.5,68.1-68.1V568.8h138.2c37.6,0,68.1-30.5,68.1-68.1v-1.4C775.2,461.8,744.7,431.2,707.1,431.2z"/>
</g>
</svg>
